<svg width="12" height="13" viewBox="0 0 12 13" fill="none" xmlns="http://www.w3.org/2000/svg">
<path d="M6.91406 6.25L11.7305 11.0664C11.8008 11.1719 11.8359 11.2773 11.8359 11.3828C11.8359 11.5234 11.8008 11.5938 11.7305 11.6641L11.4141 11.9805C11.3438 12.0508 11.2383 12.0859 11.1328 12.0859C10.9922 12.0859 10.8867 12.0508 10.8164 11.9805L6 7.12891L1.18359 11.9805C1.07812 12.0508 0.972656 12.0859 0.867188 12.0859C0.726562 12.0859 0.65625 12.0508 0.585938 11.9805L0.269531 11.6641C0.199219 11.5938 0.164062 11.5234 0.164062 11.3828C0.164062 11.2773 0.199219 11.1719 0.269531 11.0664L5.12109 6.25L0.269531 1.43359C0.199219 1.36328 0.164062 1.25781 0.164062 1.11719C0.164062 1.01172 0.199219 0.90625 0.269531 0.835938L0.585938 0.519531C0.65625 0.449219 0.726562 0.414062 0.867188 0.414062C0.972656 0.414062 1.07812 0.449219 1.18359 0.519531L6 5.33594L10.8164 0.519531C10.8867 0.449219 10.9922 0.414062 11.1328 0.414062C11.2383 0.414062 11.3438 0.449219 11.4141 0.519531L11.7305 0.835938C11.8008 0.90625 11.8359 1.01172 11.8359 1.11719C11.8359 1.25781 11.8008 1.36328 11.7305 1.43359L6.91406 6.25Z" fill="#FF0000"/>
</svg>
