<svg width="16" height="13" viewBox="0 0 16 13" fill="none" xmlns="http://www.w3.org/2000/svg">
<path d="M14.6797 0.484375C14.75 0.414062 14.8203 0.34375 14.9609 0.34375C15.0664 0.34375 15.1719 0.414062 15.2422 0.484375L15.6641 0.871094C15.7344 0.976562 15.7695 1.08203 15.7695 1.1875C15.7695 1.32812 15.7344 1.39844 15.6641 1.46875L5.11719 12.0156C5.01172 12.1211 4.90625 12.1562 4.80078 12.1562C4.69531 12.1562 4.58984 12.1211 4.51953 12.0156L0.335938 7.83203C0.265625 7.76172 0.230469 7.69141 0.230469 7.55078C0.230469 7.44531 0.265625 7.33984 0.335938 7.23438L0.757812 6.84766C0.828125 6.77734 0.898438 6.70703 1.03906 6.70703C1.14453 6.70703 1.25 6.77734 1.32031 6.84766L4.80078 10.3281L14.6797 0.484375Z" fill="#0685F3"/>
</svg>
